Coordinates
version=1
nRows=4
nColumns=63
inDegrees=yes

Units are S.I. units (second, meters, Newtons, ...)
If the header above contains a line with 'inDegrees', this indicates whether rotational values are in degrees (yes) or radians (no).

endheader
time	pelvis_tilt	pelvis_list	pelvis_rotation	pelvis_tx	pelvis_ty	pelvis_tz	hip_flexion_r	hip_adduction_r	hip_rotation_r	knee_angle_r	knee_angle_r_beta	ankle_angle_r	subtalar_angle_r	mtp_angle_r	hip_flexion_l	hip_adduction_l	hip_rotation_l	knee_angle_l	knee_angle_l_beta	ankle_angle_l	subtalar_angle_l	mtp_angle_l	L5_S1_Flex_Ext	L5_S1_Lat_Bending	L5_S1_axial_rotation	L4_L5_Flex_Ext	L4_L5_Lat_Bending	L4_L5_axial_rotation	L3_L4_Flex_Ext	L3_L4_Lat_Bending	L3_L4_axial_rotation	L2_L3_Flex_Ext	L2_L3_Lat_Bending	L2_L3_axial_rotation	L1_L2_Flex_Ext	L1_L2_Lat_Bending	L1_L2_axial_rotation	L1_T12_Flex_Ext	L1_T12_Lat_Bending	L1_T12_axial_rotation	Abs_r3	Abs_r2	Abs_r1	Abs_t1	Abs_t2	neck_flexion	neck_bending	neck_rotation	arm_flex_r	arm_add_r	arm_rot_r	elbow_flex_r	pro_sup_r	wrist_flex_r	wrist_dev_r	arm_flex_l	arm_add_l	arm_rot_l	elbow_flex_l	pro_sup_l	wrist_flex_l	wrist_dev_l
     10.00000000	      9.29360258	     -4.68809594	    101.74472490	      0.13391048	      0.89671322	      0.44652497	     10.34462996	      0.03529570	    -29.04642040	     23.51482821	      0.41041118	     31.89786420	     18.32644858	      0.00000000	     18.95368455	     -6.60808800	     -2.19777856	     31.22487020	      0.54497679	     28.57484758	      1.42300172	      0.00000000	     -0.21061799	      0.19996511	      1.76498269	     -0.39113867	      0.26595359	      1.87529410	     -0.34602430	      0.48619516	      1.87529410	     -0.24071530	      0.48619516	      1.54435985	     -0.19557987	      0.40776885	      1.43404843	     -0.12034712	      0.30974595	      1.32373701	     -1.50442324	      2.26204528	      9.81630420	      0.00000000	      0.00000000	      5.29464870	      3.12338495	    -10.96111195	     66.71204218	     -4.06640362	     67.58840040	     40.42927069	     88.14059897	    -18.01735570	     -2.04528253	     36.68254626	    -10.63073547	      4.01621810	     59.00123881	     87.62020942	    -18.96799055	    -14.91587664
     10.01694915	      9.29533936	     -4.73969157	    102.00533114	      0.13418845	      0.89713478	      0.44661765	     10.33450157	      0.06408862	    -29.35155694	     23.37374492	      0.40794881	     31.77717674	     18.32544143	      0.00000000	     19.09233418	     -6.55445109	     -2.02125063	     31.24363266	      0.54530426	     28.43274526	      1.23870612	      0.00000000	     -0.18689476	      0.18449116	      1.69809919	     -0.34708226	      0.24537324	      1.80423039	     -0.30704940	      0.44857181	      1.80423039	     -0.21360202	      0.44857181	      1.48583679	     -0.17355047	      0.37621438	      1.37970559	     -0.10679167	      0.28577681	      1.27357439	     -1.33497059	      2.08700091	      9.44431826	      0.00000000	      0.00000000	      4.91532462	      3.02533523	    -11.94128806	     66.71782095	     -5.80674673	     66.73437995	     42.46615360	     88.30328180	    -13.69541220	     -1.08765823	     36.56475897	     -9.91290227	      2.64121364	     59.00219144	     86.75022027	    -13.18120409	    -16.24430011
     10.03389831	      9.30460519	     -4.76541167	    102.11747005	      0.13428593	      0.89778365	      0.44669023	     10.29652382	      0.11447700	    -29.51229679	     23.20237080	      0.40495776	     31.56203183	     18.29211604	      0.00000000	     19.08972127	     -6.45703418	     -1.70999896	     31.08933793	      0.54261131	     28.19498629	      0.74666572	      0.00000000	     -0.16276730	      0.17163119	      1.64855620	     -0.30227516	      0.22826949	      1.75159096	     -0.26741040	      0.41730409	      1.75159096	     -0.18602675	      0.41730409	      1.44248667	     -0.15114572	      0.34999033	      1.33945191	     -0.09300524	      0.26585672	      1.23641715	     -1.16263057	      1.94152640	      9.16877499	      0.00000000	      0.00000000	      4.65451296	      3.09805184	    -12.48144015	     65.96284409	     -7.35901720	     64.23833337	     44.64874548	     88.52662463	     -9.79144194	      0.13452598	     36.09539228	     -8.34378262	      0.27858613	     58.77430912	     80.03607932	     -4.79924032	    -19.19793271
     10.05084746	      9.58137602	     -4.64446703	    102.47101253	      0.13344091	      0.89858320	      0.44720979	     10.12231429	      0.37507005	    -30.03826661	     22.97071423	      0.40091459	     31.15794516	     18.30245198	      0.00000000	     19.13518270	     -6.57577601	     -1.20839735	     31.07452554	      0.54235278	     28.04979891	      0.48292921	      0.00000000	     -0.14785451	      0.20035365	      1.56060007	     -0.27458061	      0.26647036	      1.65813758	     -0.24291017	      0.48713987	      1.65813758	     -0.16898292	      0.48713987	      1.36552506	     -0.13729770	      0.40856117	      1.26798756	     -0.08448407	      0.31034781	      1.17045005	     -1.05610996	      2.26644059	      8.67958942	      0.00000000	      0.00000000	      4.50562006	      3.14151977	    -12.73859946	     65.06385424	     -8.80451647	     61.46342538	     46.44746930	     88.54279002	     -6.45519963	      0.65323146	     35.06280253	     -5.42862596	      4.51037375	     64.73489691	      1.62534191	      6.56014335	    -21.62626527
